<svg t="1720855730050" class="icon" viewBox="0 0 1024 1024" version="1.1" xmlns="http://www.w3.org/2000/svg" p-id="8146" width="128" height="128"><path d="M208.979592 1024h606.040816c115.461224 0 208.979592-93.518367 208.979592-208.979592V208.979592C1024 93.518367 930.481633 0 815.020408 0H208.979592C93.518367 0 0 93.518367 0 208.979592v606.040816c0 115.461224 93.518367 208.979592 208.979592 208.979592z" fill="#FA3951" p-id="8147"></path><path d="M774.582857 136.672653s-312.737959 61.23102-351.294694 70.008163c-25.80898 4.388571-34.272653 21.838367-34.272653 43.781225v415.660408c0 43.781224-34.272653 30.61551-81.502041 43.781224-77.00898 21.838367-81.397551 56.842449-85.681632 65.619592-8.568163 43.676735 4.284082 91.846531 59.977143 109.400817 21.211429 4.284082 43.049796 4.284082 64.261224 0 38.556735-8.777143 59.977143-26.017959 77.217959-65.619592 8.463673-17.554286 8.463673-43.781224 8.463674-65.619592V403.539592c0-21.838367 4.388571-26.226939 25.808979-30.61551 101.773061-14.106122 203.441633-38.452245 299.885715-56.52898v284.107755c0 48.065306-89.965714 17.449796-149.942858 74.292245-21.420408 21.838367-25.70449 61.23102-17.240816 78.785306 8.568163 30.61551 29.988571 52.453878 60.081633 56.842449 21.420408 4.388571 85.681633 13.165714 124.238367-35.004081 25.70449-30.61551 25.70449-52.558367 25.70449-83.173878L804.571429 167.288163c0-21.838367-12.852245-35.004082-29.988572-30.61551z" fill="#FFFFFF" p-id="8148"></path></svg>