<?xml version="1.0" encoding="UTF-8"?>
<svg width="128px" height="128px" viewBox="0 0 128 128" version="1.1" xmlns="http://www.w3.org/2000/svg" xmlns:xlink="http://www.w3.org/1999/xlink">
    <title>favicon</title>
    <g id="favicon" stroke="none" stroke-width="1" fill="none" fill-rule="evenodd">
        <g fill-rule="nonzero" id="Path">
            <path d="M26.122449,128 L101.877551,128 C116.310204,128 128,116.310204 128,101.877551 L128,26.122449 C128,11.6897959 116.310204,0 101.877551,0 L26.122449,0 C11.6897959,0 0,11.6897959 0,26.122449 L0,101.877551 C0,116.310204 11.6897959,128 26.122449,128 Z" fill="#7839FA"></path>
            <path d="M96.8228571,17.0840816 C96.8228571,17.0840816 57.7306123,24.7379591 52.9110204,25.835102 C49.6848979,26.3836734 48.6269388,28.5648979 48.6269388,31.3077551 L48.6269388,83.2653061 C48.6269388,88.7379591 44.3428571,87.0922449 38.4391836,88.7379591 C28.8130611,91.467755 28.2644897,95.8432652 27.7289796,96.9404081 C26.6579593,102.4 28.2644899,108.421224 35.2261225,110.61551 C37.8775511,111.15102 40.607347,111.15102 43.2587755,110.61551 C48.0783674,109.518367 50.7559184,107.363265 52.9110204,102.413061 C53.9689795,100.218775 53.9689795,96.9404082 53.9689796,94.2106122 L53.9689796,50.442449 C53.9689796,47.7126531 54.517551,47.1640816 57.195102,46.6155102 C69.9167346,44.852245 82.6253061,41.8089796 94.6808164,39.5493877 L94.6808164,75.0628571 C94.6808164,81.0710204 83.4351021,77.2440816 75.9379591,84.3493877 C73.2604081,87.0791836 72.7248979,92.0032652 73.7828571,94.197551 C74.8538775,98.0244897 77.5314285,100.754286 81.2930613,101.302857 C83.9706123,101.851428 92.0032654,102.948571 96.8228571,96.927347 C100.035918,93.1004082 100.035918,90.3575511 100.035918,86.5306122 L100.571429,20.9110204 C100.571429,18.1812245 98.964898,16.5355101 96.8228571,17.0840816 Z" fill="#FFFFFF"></path>
        </g>
    </g>
</svg>